<svg width="131" height="389" viewBox="0 0 131 389" fill="none" xmlns="http://www.w3.org/2000/svg">
<path fill-rule="evenodd" clip-rule="evenodd" d="M62.5765 195.179C27.9705 193.437 0.402557 165.435 0 131H132C131.597 165.435 104.03 193.437 69.4235 195.179C103.573 196.898 130.869 224.19 131.97 258H0.029633C1.13048 224.19 28.4262 196.898 62.5765 195.179Z" fill="#0C65AF"/>
<path d="M0.00959778 0.00970459C0.00959778 0.00970459 60.2047 -1.54298 96.3741 34.6263C132.543 70.7955 130.99 130.99 130.99 130.99C130.99 130.99 70.7955 132.543 34.6261 96.3741C-1.54341 60.2048 0.00959778 0.00970459 0.00959778 0.00970459Z" fill="#2F2EA6"/>
<path d="M131 323.5C131 359.675 101.675 389 65.5 389C29.3254 389 0 359.675 0 323.5C0 287.325 29.3254 258 65.5 258C101.675 258 131 287.325 131 323.5Z" fill="#FBEA26"/>
</svg>
