<svg width="536" height="532" viewBox="0 0 536 532" fill="none" xmlns="http://www.w3.org/2000/svg">
<path d="M6.10352e-05 176V-6.10352e-05H178C177.993 46.6759 159.237 91.4384 125.857 124.443C92.4773 157.448 47.2064 175.993 6.10352e-05 176Z" fill="#0C65AF"/>
<path d="M178 355V176H358C357.993 223.472 339.026 268.997 305.271 302.564C271.516 336.132 225.737 354.993 178 355Z" fill="#8ECCFF"/>
<path d="M362 532V355H536C535.993 401.941 517.659 446.958 485.029 480.15C452.399 513.343 408.146 531.993 362 532Z" fill="#8ECCFF"/>
<path d="M358 176H178V-6.10352e-05C225.737 0.00694275 271.517 18.552 305.272 51.5569C339.027 84.5618 357.993 129.324 358 176Z" fill="#2F2EA6"/>
<path d="M358 -6.10352e-05H536V176H358V-6.10352e-05Z" fill="#0C65AF"/>
<path fill-rule="evenodd" clip-rule="evenodd" d="M265.228 444.446C216.989 442.019 178.561 402.992 178 355H362C361.438 402.992 323.011 442.019 274.772 444.446C322.375 446.842 360.423 484.879 361.958 532H178.041C179.576 484.879 217.624 446.842 265.228 444.446Z" fill="#0C65AF"/>
<path d="M177.987 355.013C177.987 355.013 180.097 436.345 130.951 485.216C81.8046 534.086 0.0131974 531.987 0.0131974 531.987C0.0131974 531.987 -2.09699 450.655 47.049 401.785C96.195 352.915 177.987 355.013 177.987 355.013Z" fill="#2F2EA6"/>
<path d="M535.987 354.987C535.987 354.987 454.195 357.108 405.049 307.686C355.903 258.264 358.013 176.013 358.013 176.013C358.013 176.013 439.804 173.891 488.951 223.313C538.097 272.735 535.987 354.987 535.987 354.987Z" fill="#FBEA26"/>
<path d="M0 176H178V355H0V176Z" fill="#FBEA26"/>
</svg>
